<?xml version="1.0" standalone="no"?>
<!DOCTYPE svg PUBLIC "-//W3C//DTD SVG 20010904//EN"
 "http://www.w3.org/TR/2001/REC-SVG-20010904/DTD/svg10.dtd">
<svg version="1.0" xmlns="http://www.w3.org/2000/svg"
 width="150.000000pt" height="150.000000pt" viewBox="0 0 150.000000 150.000000"
 preserveAspectRatio="xMidYMid meet">
<metadata>
Created by potrace 1.11, written by Peter Selinger 2001-2013
</metadata>
<g transform="translate(0.000000,150.000000) scale(0.100000,-0.100000)"
fill="#000000" stroke="none">
<path d="M399 1421 c-22 -22 -29 -39 -29 -67 0 -24 -11 -55 -31 -87 -17 -28
-33 -66 -34 -84 -2 -18 -6 -41 -10 -53 -3 -11 -2 -20 3 -20 10 0 12 -9 31
-109 14 -75 27 -85 115 -89 l74 -4 52 -54 c43 -45 54 -64 66 -116 12 -51 13
-70 3 -100 -6 -20 -9 -50 -6 -66 4 -21 1 -35 -12 -49 -26 -27 -41 -58 -41 -83
0 -21 -1 -20 -33 4 -37 28 -88 34 -106 13 -16 -20 -42 -99 -30 -91 7 4 9 -1 5
-14 -5 -14 0 -27 12 -39 11 -10 23 -28 26 -40 4 -13 12 -23 17 -23 5 0 9 -3 9
-7 0 -5 -26 -7 -58 -5 -36 2 -74 -3 -102 -13 -25 -9 -55 -16 -67 -16 -13 0
-23 -3 -23 -8 0 -5 -20 -17 -44 -26 -45 -17 -63 -44 -43 -64 6 -6 19 -11 29
-11 10 0 23 -9 30 -20 15 -24 46 -26 63 -3 8 10 17 13 25 8 17 -10 113 -6 120
5 7 11 170 12 170 1 0 -5 10 -13 23 -17 12 -4 28 -15 35 -26 15 -20 70 -20 95
0 7 6 23 9 35 5 14 -3 30 1 42 12 10 9 25 15 32 12 7 -2 31 1 53 8 31 9 56 9
110 -1 40 -7 125 -10 200 -8 119 3 132 5 148 25 15 19 16 25 4 42 -7 11 -30
25 -51 31 -21 6 -35 14 -31 18 3 3 -11 5 -32 4 -20 -1 -53 6 -72 16 -39 20
-71 22 -117 9 -46 -13 -58 0 -29 31 14 15 25 31 25 36 0 5 9 20 21 33 14 17
20 35 18 64 -4 60 -16 78 -48 72 -26 -6 -27 -4 -24 34 2 21 4 42 5 46 1 5 -8
28 -21 52 -23 44 -11 46 22 4 14 -17 29 -23 57 -23 l38 0 6 52 c3 29 8 72 12
96 8 55 1 80 -36 127 -33 41 -37 79 -20 165 6 33 5 52 -6 74 -8 16 -14 35 -14
43 0 7 -7 13 -15 13 -9 0 -32 16 -52 35 -35 34 -63 45 -63 26 0 -6 5 -13 10
-16 6 -3 10 -13 10 -22 0 -12 -7 -14 -28 -10 -60 12 -187 -35 -214 -79 -5 -7
-17 -10 -28 -7 -16 4 -20 14 -20 53 0 36 -9 66 -36 117 -20 37 -42 75 -50 84
-8 8 -14 29 -14 45 0 44 -45 84 -94 84 -28 0 -45 -7 -67 -29z"/>
</g>
</svg>
